<svg xmlns="http://www.w3.org/2000/svg" viewBox="0 0 750 500"><g id="freepik--Floor--inject-6"><line x1="26.63" y1="454.42" x2="731.4" y2="454.42" style="fill:none;stroke:#263238;stroke-linecap:round;stroke-linejoin:round"></line></g><g id="freepik--Graphics--inject-6"><rect x="702.11" y="211.48" width="14.95" height="14.95" transform="translate(53.01 565.89) rotate(-45)" style="fill:none;stroke:#9c9c9c;stroke-linecap:round;stroke-linejoin:round"></rect><rect x="49.14" y="79.34" width="14.95" height="14.95" transform="translate(-44.8 65.46) rotate(-45)" style="fill:none;stroke:#9c9c9c;stroke-linecap:round;stroke-linejoin:round"></rect><rect x="437.43" y="364.71" width="11.46" height="11.46" transform="translate(-132.14 421.86) rotate(-45)" style="fill:none;stroke:#9c9c9c;stroke-linecap:round;stroke-linejoin:round"></rect><rect x="443.31" y="40.45" width="11.46" height="11.46" transform="translate(98.87 331.05) rotate(-45)" style="fill:none;stroke:#9c9c9c;stroke-linecap:round;stroke-linejoin:round"></rect><rect x="25.32" y="263.51" width="11.46" height="11.46" transform="translate(-181.29 100.81) rotate(-45)" style="fill:none;stroke:#9c9c9c;stroke-linecap:round;stroke-linejoin:round"></rect><rect x="33.14" y="65.15" width="11.46" height="11.46" transform="translate(-38.73 48.25) rotate(-45)" style="fill:none;stroke:#9c9c9c;stroke-linecap:round;stroke-linejoin:round"></rect><rect x="322.41" y="427.52" width="11.46" height="11.46" transform="translate(-210.24 358.93) rotate(-45)" style="fill:none;stroke:#9c9c9c;stroke-linecap:round;stroke-linejoin:round"></rect><rect x="713.56" y="197.29" width="11.46" height="11.46" transform="translate(67.11 568.08) rotate(-45)" style="fill:none;stroke:#9c9c9c;stroke-linecap:round;stroke-linejoin:round"></rect><rect x="714.49" y="379.44" width="11.46" height="11.46" transform="translate(-61.41 622.09) rotate(-45)" style="fill:none;stroke:#9c9c9c;stroke-linecap:round;stroke-linejoin:round"></rect><line x1="716.38" y1="68.45" x2="716.38" y2="85.02" style="fill:none;stroke:#9c9c9c;stroke-linecap:round;stroke-linejoin:round"></line><line x1="708.1" y1="76.74" x2="724.67" y2="76.74" style="fill:none;stroke:#9c9c9c;stroke-linecap:round;stroke-linejoin:round"></line><line x1="55.42" y1="117.74" x2="55.42" y2="134.31" style="fill:none;stroke:#9c9c9c;stroke-linecap:round;stroke-linejoin:round"></line><line x1="47.13" y1="126.02" x2="63.7" y2="126.02" style="fill:none;stroke:#9c9c9c;stroke-linecap:round;stroke-linejoin:round"></line><line x1="710.76" y1="313.15" x2="710.76" y2="338.92" style="fill:none;stroke:#9c9c9c;stroke-linecap:round;stroke-linejoin:round"></line><line x1="697.87" y1="326.03" x2="723.65" y2="326.03" style="fill:none;stroke:#9c9c9c;stroke-linecap:round;stroke-linejoin:round"></line><line x1="427.98" y1="304.74" x2="446.21" y2="322.96" style="fill:none;stroke:#9c9c9c;stroke-linecap:round;stroke-linejoin:round"></line><line x1="427.98" y1="322.96" x2="446.21" y2="304.74" style="fill:none;stroke:#9c9c9c;stroke-linecap:round;stroke-linejoin:round"></line><line x1="24.04" y1="413.9" x2="37.14" y2="426.99" style="fill:none;stroke:#9c9c9c;stroke-linecap:round;stroke-linejoin:round"></line><line x1="24.04" y1="426.99" x2="37.14" y2="413.9" style="fill:none;stroke:#9c9c9c;stroke-linecap:round;stroke-linejoin:round"></line><line x1="338.01" y1="25.89" x2="351.11" y2="38.99" style="fill:none;stroke:#9c9c9c;stroke-linecap:round;stroke-linejoin:round"></line><line x1="338.01" y1="38.99" x2="351.11" y2="25.89" style="fill:none;stroke:#9c9c9c;stroke-linecap:round;stroke-linejoin:round"></line></g><g id="freepik--Arrow--inject-6"><polygon points="442.21 76.81 404.52 48.13 404.52 63.22 348.76 63.22 348.76 90.4 404.52 90.4 404.52 105.5 442.21 76.81" style="fill:none;stroke:#263238;stroke-linecap:round;stroke-linejoin:round"></polygon></g><g id="freepik--screen-2--inject-6"><rect x="473.33" y="36.31" width="214.83" height="418.11" rx="11.27" style="fill:#fff;stroke:#263238;stroke-linecap:round;stroke-linejoin:round"></rect><path d="M473.33,418.9v24.24a11.27,11.27,0,0,0,11.27,11.28H676.89a11.28,11.28,0,0,0,11.27-11.28V418.9Z" style="fill:#00FF88;stroke:#263238;stroke-miterlimit:10"></path><rect x="560.21" y="161.45" width="44.63" height="44.63" rx="6.1" style="fill:#263238;stroke:#263238;stroke-miterlimit:10"></rect><polygon points="594.51 184.63 572.83 172.11 572.83 197.15 594.51 184.63" style="fill:#00FF88;stroke:#263238;stroke-miterlimit:10"></polygon><path d="M658.68,78.13H617.11a16,16,0,0,1-16-16h0a16,16,0,0,1,16-16h41.57a16,16,0,0,1,16,16h0A16,16,0,0,1,658.68,78.13Z" style="fill:#00FF88;stroke:#263238;stroke-miterlimit:10"></path><circle cx="616.63" cy="62.09" r="14.26" style="fill:#fff;stroke:#263238;stroke-linecap:round;stroke-linejoin:round"></circle><line x1="488.52" y1="64.99" x2="516.36" y2="64.99" style="fill:none;stroke:#263238;stroke-linecap:round;stroke-linejoin:round"></line><line x1="488.52" y1="72.28" x2="516.36" y2="72.28" style="fill:none;stroke:#263238;stroke-linecap:round;stroke-linejoin:round"></line><line x1="488.52" y1="79.57" x2="516.36" y2="79.57" style="fill:none;stroke:#263238;stroke-linecap:round;stroke-linejoin:round"></line><rect x="492.2" y="285.68" width="151.58" height="115.98" style="fill:#00FF88;stroke:#263238;stroke-miterlimit:10"></rect><polygon points="643.78 331.75 620.63 309.54 578.74 357.26 553.93 338.7 492.2 401.66 643.78 401.66 643.78 331.75" style="fill:#263238;stroke:#263238;stroke-miterlimit:10"></polygon><circle cx="526" cy="318.82" r="15.91" style="fill:#263238;stroke:#263238;stroke-miterlimit:10"></circle><line x1="487.15" y1="91.69" x2="672.83" y2="91.69" style="fill:none;stroke:#263238;stroke-linecap:round;stroke-linejoin:round"></line><circle cx="665.6" cy="298.82" r="12.9" transform="translate(-50.67 159.99) rotate(-13.21)" style="fill:#263238;stroke:#263238;stroke-linecap:round;stroke-linejoin:round"></circle><path d="M670.57,294.46a5,5,0,1,0-5,5A5,5,0,0,0,670.57,294.46Z" style="fill:#fff;stroke:#263238;stroke-linecap:round;stroke-linejoin:round"></path><path d="M665.6,300.38a8.21,8.21,0,0,0-8.22,8.21c0,.06,0,.12,0,.19a12.92,12.92,0,0,0,16.41,0c0-.07,0-.13,0-.19A8.21,8.21,0,0,0,665.6,300.38Z" style="fill:#fff;stroke:#263238;stroke-linecap:round;stroke-linejoin:round"></path><circle cx="665.6" cy="341.21" r="12.9" transform="translate(-60.36 161.11) rotate(-13.21)" style="fill:#263238;stroke:#263238;stroke-linecap:round;stroke-linejoin:round"></circle><path d="M670.57,336.85a5,5,0,1,0-5,5A5,5,0,0,0,670.57,336.85Z" style="fill:#fff;stroke:#263238;stroke-linecap:round;stroke-linejoin:round"></path><path d="M665.6,342.77a8.22,8.22,0,0,0-8.22,8.21c0,.06,0,.12,0,.19a12.92,12.92,0,0,0,16.41,0c0-.07,0-.13,0-.19A8.22,8.22,0,0,0,665.6,342.77Z" style="fill:#fff;stroke:#263238;stroke-linecap:round;stroke-linejoin:round"></path><circle cx="665.6" cy="383.6" r="12.9" transform="translate(-70.04 162.23) rotate(-13.21)" style="fill:#263238;stroke:#263238;stroke-linecap:round;stroke-linejoin:round"></circle><path d="M670.57,379.24a5,5,0,1,0-5,5A5,5,0,0,0,670.57,379.24Z" style="fill:#fff;stroke:#263238;stroke-linecap:round;stroke-linejoin:round"></path><path d="M665.6,385.16a8.22,8.22,0,0,0-8.22,8.21c0,.06,0,.13,0,.19a12.92,12.92,0,0,0,16.41,0c0-.06,0-.13,0-.19A8.22,8.22,0,0,0,665.6,385.16Z" style="fill:#fff;stroke:#263238;stroke-linecap:round;stroke-linejoin:round"></path><rect x="489.57" y="106.74" width="183.28" height="35.84" rx="17.92" style="fill:#a3a3a3;stroke:#263238;stroke-miterlimit:10"></rect><rect x="489.57" y="106.74" width="101.58" height="35.84" rx="17.92" style="fill:#00FF88;stroke:#263238;stroke-miterlimit:10"></rect><rect x="492.2" y="161.45" width="44.63" height="44.63" rx="6.1" style="fill:#00FF88;stroke:#263238;stroke-miterlimit:10"></rect><path d="M533,187.59V181l-5.58-.3a13.16,13.16,0,0,0-1.11-3l3.75-4.16-4.64-4.64-4,3.59a13.5,13.5,0,0,0-3.09-1.34L518,165.7h-6.56l-.29,5.46a12.92,12.92,0,0,0-3,1.27L504,168.64l-4.64,4.64,3.91,4.34a12.72,12.72,0,0,0-1.06,2.71l-6.06.32v6.56l6.23.33a12.19,12.19,0,0,0,1,2.37l-4.3,4.78,4.64,4.65,4.78-4.31a13.53,13.53,0,0,0,2.24,1l.35,6.55h6.56l.33-6.33a12.38,12.38,0,0,0,2.41-.88l4.74,4.26,4.64-4.64-4-4.45a13.22,13.22,0,0,0,1.24-2.6Zm-18.23,3.17a7.12,7.12,0,1,1,7.11-7.11A7.12,7.12,0,0,1,514.72,190.76Z" style="fill:#263238;stroke:#263238;stroke-miterlimit:10"></path><rect x="628.22" y="161.45" width="44.63" height="44.63" rx="6.1" style="fill:#00FF88;stroke:#263238;stroke-miterlimit:10"></rect><circle cx="650.53" cy="183.76" r="15.65" transform="translate(233.9 716.09) rotate(-67.72)" style="fill:#263238;stroke:#263238;stroke-miterlimit:10"></circle><rect x="642.59" y="175.82" width="15.89" height="15.89" style="fill:#fff;stroke:#263238;stroke-linecap:round;stroke-linejoin:round"></rect><rect x="560.21" y="220.29" width="44.63" height="44.63" rx="6.1" style="fill:#fff;stroke:#263238;stroke-linecap:round;stroke-linejoin:round"></rect><rect x="567.63" y="232.43" width="30.14" height="21.05" style="fill:#00FF88;stroke:#263238;stroke-linecap:round;stroke-linejoin:round"></rect><polygon points="567.63 232.43 582.7 242.96 597.77 232.43 567.63 232.43" style="fill:#00FF88;stroke:#263238;stroke-linecap:round;stroke-linejoin:round"></polygon><rect x="492.2" y="220.29" width="44.63" height="44.63" rx="6.1" style="fill:#00FF88;stroke:#263238;stroke-miterlimit:10"></rect><path d="M525,236.17a15.19,15.19,0,0,0-1.32-3.42c-.65-1.11-1.07-1.4-3.33-1.4h-4.11v20c0,3.21.33,3.66,4.24,3.91v1.15h-12V255.3c3.83-.25,4.16-.66,4.16-3.91v-20H509c-2.27,0-2.92.25-3.62,1.49a17.91,17.91,0,0,0-1.36,3.33h-1.23c.24-2.51.49-5.1.61-7.41h.95c.62,1,1.07,1,2.22,1h16.29a2.06,2.06,0,0,0,2.1-1h1c0,1.94.17,4.9.37,7.28Z" style="fill:#263238"></path><rect x="628.22" y="220.29" width="44.63" height="44.63" rx="6.1" style="fill:#263238;stroke:#263238;stroke-miterlimit:10"></rect><circle cx="650.53" cy="242.61" r="15.63" style="fill:none;stroke:#00FF88;stroke-miterlimit:10"></circle><ellipse cx="650.53" cy="242.61" rx="6.92" ry="15.63" style="fill:none;stroke:#00FF88;stroke-miterlimit:10"></ellipse><line x1="640.43" y1="230.74" x2="660.86" y2="230.74" style="fill:none;stroke:#00FF88;stroke-miterlimit:10"></line><line x1="635.74" y1="236.83" x2="665.56" y2="236.83" style="fill:none;stroke:#00FF88;stroke-miterlimit:10"></line><line x1="640.43" y1="254.59" x2="660.86" y2="254.59" style="fill:none;stroke:#00FF88;stroke-miterlimit:10"></line><line x1="635.74" y1="248.5" x2="665.56" y2="248.5" style="fill:none;stroke:#00FF88;stroke-miterlimit:10"></line><line x1="635.23" y1="242.68" x2="666.06" y2="242.68" style="fill:none;stroke:#00FF88;stroke-miterlimit:10"></line></g><g id="freepik--screen-1--inject-6"><rect x="89.2" y="36.31" width="214.83" height="418.11" rx="11.27" style="fill:#fff;stroke:#263238;stroke-linecap:round;stroke-linejoin:round"></rect><path d="M89.2,418.9v24.24a11.28,11.28,0,0,0,11.27,11.28H292.76A11.28,11.28,0,0,0,304,443.14V418.9Z" style="fill:#00FF88;stroke:#263238;stroke-miterlimit:10"></path><rect x="172.32" y="164.99" width="44.63" height="44.63" style="fill:#263238;stroke:#263238;stroke-miterlimit:10"></rect><rect x="59.07" y="164.99" width="44.63" height="44.63" style="fill:#263238;stroke:#263238;stroke-miterlimit:10"></rect><rect x="172.32" y="223.84" width="44.63" height="44.63" style="fill:#263238;stroke:#263238;stroke-miterlimit:10"></rect><rect x="234.17" y="223.84" width="44.63" height="44.63" style="fill:#263238;stroke:#263238;stroke-miterlimit:10"></rect><rect x="59.07" y="223.84" width="44.63" height="44.63" style="fill:#263238;stroke:#263238;stroke-miterlimit:10"></rect><rect x="174.35" y="161.45" width="44.63" height="44.63" style="fill:#fff;stroke:#263238;stroke-linecap:round;stroke-linejoin:round"></rect><rect x="61.09" y="161.45" width="44.63" height="44.63" style="fill:#00FF88;stroke:#263238;stroke-miterlimit:10"></rect><rect x="174.35" y="220.29" width="44.63" height="44.63" style="fill:#00FF88;stroke:#263238;stroke-miterlimit:10"></rect><rect x="236.19" y="220.29" width="44.63" height="44.63" style="fill:#00FF88;stroke:#263238;stroke-miterlimit:10"></rect><rect x="61.09" y="220.29" width="44.63" height="44.63" style="fill:#fff;stroke:#263238;stroke-linecap:round;stroke-linejoin:round"></rect><path d="M315.62,49.76H274.05a16,16,0,0,0,0,32.09h41.57a16,16,0,0,0,0-32.09Z" style="fill:#263238;stroke:#263238;stroke-miterlimit:10"></path><path d="M318.62,78.13H277.05a16,16,0,0,1-16.05-16h0a16,16,0,0,1,16.05-16h41.57a16,16,0,0,1,16,16h0A16,16,0,0,1,318.62,78.13Z" style="fill:#00FF88;stroke:#263238;stroke-miterlimit:10"></path><circle cx="276.56" cy="62.09" r="14.26" style="fill:#fff;stroke:#263238;stroke-linecap:round;stroke-linejoin:round"></circle><line x1="107.4" y1="64.99" x2="135.24" y2="64.99" style="fill:none;stroke:#263238;stroke-linecap:round;stroke-linejoin:round"></line><line x1="107.4" y1="72.28" x2="135.24" y2="72.28" style="fill:none;stroke:#263238;stroke-linecap:round;stroke-linejoin:round"></line><line x1="107.4" y1="79.57" x2="135.24" y2="79.57" style="fill:none;stroke:#263238;stroke-linecap:round;stroke-linejoin:round"></line><circle cx="276.4" cy="300.26" r="12.59" style="fill:#fff;stroke:#263238;stroke-linecap:round;stroke-linejoin:round"></circle><circle cx="276.4" cy="341.35" r="12.59" transform="translate(-104.96 559.27) rotate(-80.75)" style="fill:#fff;stroke:#263238;stroke-linecap:round;stroke-linejoin:round"></circle><circle cx="276.4" cy="382.44" r="12.59" style="fill:#fff;stroke:#263238;stroke-linecap:round;stroke-linejoin:round"></circle><line x1="106.09" y1="91.69" x2="291.78" y2="91.69" style="fill:none;stroke:#263238;stroke-linecap:round;stroke-linejoin:round"></line><rect x="49.69" y="290.75" width="151.58" height="115.98" style="fill:#263238;stroke:#263238;stroke-miterlimit:10"></rect><line x1="49.69" y1="406.73" x2="201.28" y2="290.75" style="fill:#263238;stroke:#263238;stroke-miterlimit:10"></line><line x1="49.69" y1="290.75" x2="201.28" y2="406.73" style="fill:#263238;stroke:#263238;stroke-miterlimit:10"></line><rect x="54.25" y="285.68" width="151.58" height="115.98" style="fill:#fff;stroke:#263238;stroke-linecap:round;stroke-linejoin:round"></rect><line x1="54.25" y1="401.66" x2="205.83" y2="285.68" style="fill:none;stroke:#263238;stroke-linecap:round;stroke-linejoin:round"></line><line x1="54.25" y1="285.68" x2="205.83" y2="401.66" style="fill:none;stroke:#263238;stroke-linecap:round;stroke-linejoin:round"></line><path d="M325.93,145.12H178.49a17.92,17.92,0,0,1-17.92-17.92h0a17.92,17.92,0,0,1,17.92-17.93H325.93a17.92,17.92,0,0,1,17.92,17.93h0A17.92,17.92,0,0,1,325.93,145.12Z" style="fill:#263238;stroke:#263238;stroke-miterlimit:10"></path><rect x="164.62" y="106.74" width="183.28" height="35.84" rx="17.92" style="fill:#fff;stroke:#263238;stroke-linecap:round;stroke-linejoin:round"></rect></g><g id="freepik--Character--inject-6"><polyline points="234.49 162.26 234.49 208.04 276.49 208.04 276.49 164.26 234.49 162.26" style="fill:#263238;stroke:#263238;stroke-miterlimit:10"></polyline><polygon points="281.85 205.25 238.15 205.25 234.49 162.26 278.18 162.26 281.85 205.25" style="fill:#00FF88;stroke:#263238;stroke-miterlimit:10"></polygon><path d="M314.84,234.79s-27.36-20.28-28.7-21.43-5-5.55-6.31-7.08-9-3.83-9-3.83-4-2.87-4.78-4-3.06.58-1.72,2.87,4.59,4.21,4.59,4.21H252.85s7.46,6.89,8.8,8.23,15.69,1.92,15.69,1.92,11.29,16.45,20.09,24.3,19.32,13.39,21.24,13,2.68-4,2.1-5.55S314.84,234.79,314.84,234.79Z" style="fill:#fff;stroke:#263238;stroke-miterlimit:10"></path><path d="M258.4,206.47l5.93,3.25s7.84-3.44,9.95-2.87,4.21,3.26,4.21,3.26" style="fill:none;stroke:#263238;stroke-miterlimit:10"></path><path d="M344,307.11l3.93,68.63s-2.36,16.5-.27,23.31S351,424.72,351,424.72s-2.1,3.15-1.57,4.2,2.35,7.85,2.35,7.85l.79,3.67s5-2.36,6.81-2.36,5.76,2.89,5.76,2.89,4.2-7.08,3.93-9.17-2.09-4.19-2.09-5.5.52-3.93.52-6-.26-.52-.26-6.29,2.1-52.38,2.1-53.17,5.23-39,5.23-39l9.17,40.6s-1.57,22.53,0,36.94a245.6,245.6,0,0,1,1.31,27.76s-2.88,5-2.09,5.76a28.36,28.36,0,0,1,2.35,3.41s-.78,2.88-.26,4.45l.53,1.57,15.19-5.5,3.67,1.05a9.25,9.25,0,0,0,.26-4.45c-.53-2.1-1.84-4.19-1.57-5.24a43.42,43.42,0,0,0,.78-4.72c.26-2.09-.26-5-.26-7.07s2.88-56,2.62-57.36-2.88-52.13-2.88-52.13Z" style="fill:#00FF88;stroke:#263238;stroke-miterlimit:10"></path><line x1="376.33" y1="317.42" x2="387.97" y2="313.36" style="fill:none;stroke:#263238;stroke-miterlimit:10"></line><path d="M386.78,434s15.88-4.93,13.72-5.39-9.1,1.69-9.71,2" style="fill:none;stroke:#263238;stroke-miterlimit:10"></path><path d="M353.93,436.73s12.8-5.24,12.95-4.47-2.93,2.46-2.93,2.46" style="fill:none;stroke:#263238;stroke-miterlimit:10"></path><path d="M366.58,430.1s-13.27-2.62-14.19-3.55,2.47-1.39,2.47-1.39" style="fill:none;stroke:#263238;stroke-miterlimit:10"></path><path d="M352.61,440.44s-2.07,9.09-2.69,11.25-1.54,5.55-.46,6.78,6.17,2,11.41,1.7,6.78-1.7,7.09-3.08-1.08-6.79-1.54-8.95-1.24-7.17-1.24-7.17-3.81-2.46-5.76-2.89S352.61,440.44,352.61,440.44Z" style="fill:#fff;stroke:#263238;stroke-miterlimit:10"></path><path d="M349,456.11a3.31,3.31,0,0,0,.47,2.36c1.08,1.24,6.17,2,11.41,1.7s6.78-1.7,7.09-3.08a4.27,4.27,0,0,0,0-1.21,24,24,0,0,1-8.11,1.64A41.55,41.55,0,0,1,349,456.11Z" style="fill:none;stroke:#263238;stroke-miterlimit:10"></path><path d="M385.62,442.27s-.38,11,.23,12.19,8,1.24,11.11,1.85,6.94,1.86,8.94,2.16,11.57.16,13-.61,1.24-3.24-.15-4.63-3.7-1.54-6.32-3.55-6.94-6.63-7.41-8a16.44,16.44,0,0,1-.49-3.84l-3.67-1.05Z" style="fill:#fff;stroke:#263238;stroke-miterlimit:10"></path><path d="M418.94,453.53a13.76,13.76,0,0,1-6.54,3c-5.27,1-10.94-1.75-15.62-2.34a88.43,88.43,0,0,1-11.24-2.54,10.47,10.47,0,0,0,.31,2.8c.62,1.24,8,1.24,11.11,1.85s6.94,1.86,8.94,2.16,11.57.16,13-.61S420.09,455,418.94,453.53Z" style="fill:none;stroke:#263238;stroke-miterlimit:10"></path><path d="M368.88,205.67s-21.24,3.25-23.92,4.4-8,8.42-8,8.42l-20,13.24-3.45,1.34s6.12,21.81,7.27,22,23.24-10,23.24-10l-1.15,42.29-1.92,23s6.32,1.15,24.69,1.72,40.75-2.29,41.33-2.29,1-44.2,1-44.2l.39-9,14.35-10.14s-12.06-28.89-13-32.14-2.11-4.79-5.17-6.32-15.5-3.82-15.5-3.82Z" style="fill:#263238;stroke:#263238;stroke-miterlimit:10"></path><polygon points="368.79 218.24 361.89 208.69 366.94 205.47 368.79 218.24" style="fill:#fff;stroke:#263238;stroke-linecap:round;stroke-linejoin:round"></polygon><polygon points="361.89 208.69 360.05 217.42 365.72 214.35 361.89 208.69" style="fill:#fff;stroke:#263238;stroke-linecap:round;stroke-linejoin:round"></polygon><path d="M359.47,161.59s-5.11,9.77-4.66,11.27a17.5,17.5,0,0,1,.61,2.85s-6.77,7.82-5.56,9.17a19.24,19.24,0,0,0,3.3,2.7s1,8.72,1,9.32-.75,4.36.75,5.56a5.93,5.93,0,0,0,4.51,1c1.2-.15,5.11-1.35,5.11-1.35s3.31,17.43,4.21,16.08,18-16.08,18-16.08l-.6-8.27s8.86-13.22,9.16-16.07-4.05-15.33-5.56-17.28-17-5.86-22.53-5.41S357.82,158.58,359.47,161.59Z" style="fill:#fff;stroke:#263238;stroke-linecap:round;stroke-linejoin:round"></path><path d="M372.09,198.7c1.21-1.5,2.56-18.93,3.31-20.28s4.81-2.41,6.31-1.35,1.5,8.11,0,10.51-3.31,1.66-.75,4.06a7.7,7.7,0,0,0,5.26,2.25s8.86-13.22,9.16-16.07-4.05-15.33-5.56-17.28-17-5.86-22.53-5.41-9.47,3.45-7.82,6.46a16.77,16.77,0,0,1,6.61.3c3.46.9,4.06,2.7,3.46,3.16s-5.11,2.7-4.51,4.65,7.66,6.16,7.66,6.16-1.2,7.22-1.5,9.77-3.45,5.56-3.45,5.56-8.57-5.11-11.57-4.36l-3,.75s1,8.72,1,9.32-.75,4.36.75,5.56a5.93,5.93,0,0,0,4.51,1c1.2-.15,5.11-1.35,5.11-1.35S370.89,200.21,372.09,198.7Z" style="fill:#263238;stroke:#263238;stroke-linecap:round;stroke-linejoin:round"></path><path d="M361.58,174.36c-2-2.7-4.21-1.5-4.21-1.5" style="fill:none;stroke:#263238;stroke-linecap:round;stroke-linejoin:round"></path><path d="M356.17,191.34a14,14,0,0,0,5.41-1.35" style="fill:none;stroke:#fff;stroke-linecap:round;stroke-linejoin:round"></path><path d="M360.37,178.57c0,1-.4,1.8-.9,1.8s-.9-.81-.9-1.8.4-1.8.9-1.8S360.37,177.57,360.37,178.57Z" style="fill:#263238"></path><polygon points="370.46 211.84 368.79 218.24 373.22 214.81 370.46 211.84" style="fill:none;stroke:#263238;stroke-linecap:round;stroke-linejoin:round"></polygon><polygon points="370.46 211.84 374.64 221.07 390.49 203.13 386.66 198.95 370.46 211.84" style="fill:#fff;stroke:#263238;stroke-linecap:round;stroke-linejoin:round"></polygon><line x1="344.01" y1="245.08" x2="340.75" y2="223.08" style="fill:none;stroke:#fff;stroke-miterlimit:10"></line><line x1="394.52" y1="228.24" x2="402.01" y2="251.28" style="fill:none;stroke:#fff;stroke-miterlimit:10"></line><path d="M404.34,253.31s3.21,14.72,3.36,16.5,5.8,8.18,9.52,8.18,9.82-5.35,10.42-7.29-2.83-7.88-6.85-9.07S405.82,251.67,404.34,253.31Z" style="fill:#fff;stroke:#263238;stroke-miterlimit:10"></path><polygon points="428.01 266.14 431.72 272.15 418.33 268.59 409.79 269.15 428.01 266.14" style="fill:#fff;stroke:#263238;stroke-miterlimit:10"></polygon><path d="M413.67,266s-4.7-1.34-3.94,0,6.51,8.66,7.94,9.24,5.53.38,7.05-.19,7.93-1.48,9.17-2,4.57-.95,4.47-1.91-3.14-1.23-5-.85-5-2.24-5-2.24Z" style="fill:#fff;stroke:#263238;stroke-miterlimit:10"></path><polygon points="393.95 269.96 365.24 264.98 430.3 265.56 452.5 269.96 393.95 269.96" style="fill:#a3a3a3;stroke:#263238;stroke-miterlimit:10"></polygon><polygon points="452.5 269.96 393.95 269.96 406.57 228.82 465.12 228.82 452.5 269.96" style="fill:#a3a3a3;stroke:#263238;stroke-miterlimit:10"></polygon><path d="M427.6,272.46s-.35-8.29.26-8.79a1.37,1.37,0,0,1,2.27.77c.32,1.38.46,6,.67,7.43a3.23,3.23,0,0,1-.61,2.74,19.22,19.22,0,0,1-3.09-.15" style="fill:#fff;stroke:#263238;stroke-miterlimit:10"></path><path d="M423.58,272.94c-.11-.74.34-8.82.34-8.82s.36-1.56,1.51-1.09,1.46,3.32,1.51,3.63,1,4.9,1.12,5.85a2.13,2.13,0,0,1-1.3,2.45c-1.23.61-4,.36-4,.36" style="fill:#fff;stroke:#263238;stroke-miterlimit:10"></path><path d="M420.82,273.71c0-.74,1.09-9.62,1.09-9.62s.65-1.46,1.69-.78.81,3.53.8,3.85,0,5,0,5.95a2.13,2.13,0,0,1-1.74,2.16,7.9,7.9,0,0,1-2.74.21" style="fill:#fff;stroke:#263238;stroke-miterlimit:10"></path><path d="M418.25,272.37c0-.58.86-7.59.86-7.59s.51-1.16,1.33-.62.64,2.79.63,3,0,3.94,0,4.7a1.7,1.7,0,0,1-1.38,1.71,6.43,6.43,0,0,1-2.16.16" style="fill:#fff;stroke:#263238;stroke-miterlimit:10"></path></g><g id="freepik--speech-bubble--inject-6"><path d="M447.13,116.65a32.8,32.8,0,0,0-26.46,52.2l-12.31,16.07,20.05-8.53a32.8,32.8,0,1,0,18.72-59.74Z" style="fill:#fff;stroke:#263238;stroke-linecap:round;stroke-linejoin:round"></path><path d="M435.92,161.06l-12.52-8.82v-5l12.52-8.82v5.52l-8,5.81,8,5.81Z" style="fill:#263238"></path><path d="M440,164.6l10-33.37h3.66l-10,33.37Z" style="fill:#263238"></path><path d="M457.51,161.06v-5.52l8.07-5.85-8.07-5.77V138.4l12.56,8.82v5Z" style="fill:#263238"></path></g></svg>
